<svg fill="none" height="48" viewBox="0 0 48 48" width="48" xmlns="http://www.w3.org/2000/svg"><g fill="#000"><path d="m45.705 13.7175h-2.28v2.295h2.28v2.28h-2.28v2.28h2.28v2.295h-2.28v2.28h2.28v2.28h-2.28v2.295h2.28v2.28h-2.28v2.295h2.28v2.28h2.295v-25.14h-2.295z"/><path d="m41.145 34.2975h-2.295v2.28h-2.28v-2.28h-2.28v2.28h-2.295v-2.28h-2.28v2.28h-2.295v-2.28h-2.28v2.28h-2.28v-2.28h-2.295v2.28h-2.28v-2.28h-2.295v2.28h-2.28v-2.28h-2.28v2.28h-2.295v-2.28h-2.28v2.28h-4.575v2.28h43.425v-2.28h-4.56z"/><path d="m38.85 16.0125h-4.56v2.28h-2.295v4.575h2.295v2.28h4.56v-2.28h2.295v-4.575h-2.295z"/><path d="m20.565 29.7225h-13.71v2.28h13.71z"/><path d="m15.99 25.1475h-9.135v2.28h9.135z"/><path d="m6.855 13.7175h2.28v-2.28h2.295v2.28h2.28v-2.28h2.28v2.28h2.295v-2.28h2.28v2.28h2.295v-2.28h2.28v2.28h2.28v-2.28h2.295v2.28h2.28v-2.28h2.295v2.28h2.28v-2.28h2.28v2.28h2.295v-2.28h4.56v-2.29501h-43.425v2.29501h4.575z"/><path d="m4.575 34.2975v-2.295h-2.295v-2.28h2.295v-2.295h-2.295v-2.28h2.295v-2.28h-2.295v-2.295h2.295v-2.28h-2.295v-2.28h2.295v-2.295h-2.295v-2.28h-2.28v25.14h2.28v-2.28z"/></g></svg>