<svg xmlns="http://www.w3.org/2000/svg" viewBox="0 -0.5 32 32" shape-rendering="crispEdges">
<metadata>Made with Pixels to Svg https://codepen.io/shshaw/pen/XbxvNj</metadata>
<path stroke="#000000" d="M2 4h27M1 5h1M29 5h1M1 6h1M29 6h1M1 7h1M20 7h1M29 7h1M1 8h1M19 8h3M29 8h1M1 9h1M18 9h4M24 9h1M29 9h1M1 10h1M18 10h8M29 10h1M1 11h1M17 11h10M29 11h1M1 12h1M16 12h11M29 12h1M1 13h1M16 13h11M29 13h1M1 14h1M6 14h5M15 14h12M29 14h1M1 15h1M5 15h1M9 15h1M14 15h13M29 15h1M1 16h1M6 16h1M8 16h1M13 16h15M29 16h1M1 17h1M7 17h1M13 17h17M1 18h1M6 18h3M12 18h16M29 18h1M1 19h5M9 19h5M29 19h1M1 20h1M29 20h1M1 21h1M29 21h1M1 22h1M10 22h2M19 22h5M29 22h1M1 23h1M6 23h4M12 23h2M24 23h1M29 23h1M1 24h1M14 24h1M29 24h1M1 25h1M29 25h1M1 26h1M29 26h1M1 27h1M29 27h1M2 28h27" />
</svg>