<svg xmlns="http://www.w3.org/2000/svg" viewBox="0 -0.5 32 32" shape-rendering="crispEdges">
<metadata>Made with Pixels to Svg https://codepen.io/shshaw/pen/XbxvNj</metadata>
<path stroke="#000000" d="M13 2h5M11 3h2M18 3h2M9 4h2M20 4h2M8 5h1M22 5h1M8 6h1M22 6h1M7 7h1M23 7h1M7 8h1M11 8h1M19 8h1M23 8h1M6 9h1M11 9h1M19 9h1M24 9h1M6 10h1M11 10h1M19 10h1M24 10h1M6 11h1M11 11h1M19 11h1M24 11h1M6 12h1M24 12h1M7 13h1M23 13h1M7 14h1M23 14h1M8 15h1M13 15h1M17 15h1M22 15h1M8 16h1M14 16h3M22 16h1M9 17h2M20 17h2M8 18h1M11 18h2M18 18h2M22 18h2M7 19h1M13 19h5M24 19h1M6 20h1M25 20h1M5 21h1M26 21h1M4 22h1M27 22h1M4 23h1M27 23h1M3 24h1M28 24h1M3 25h1M28 25h1M3 26h1M28 26h1M3 27h1M28 27h1M2 28h1M29 28h1M2 29h1M29 29h1M2 30h1M29 30h1M2 31h1M29 31h1" />
</svg>