<svg fill="none" height="48" viewBox="0 0 48 48" width="48" xmlns="http://www.w3.org/2000/svg" xmlns:xlink="http://www.w3.org/1999/xlink"><clipPath id="a"><path d="m0 0h48v48h-48z"/></clipPath><g clip-path="url(#a)" fill="#000"><path d="m45.705 4.57495v11.43005h-15.99v2.28h2.28v2.28h2.28v-2.28h11.43v25.14h2.295v-38.85005z"/><path d="m45.705 43.425h-2.28v2.295h2.28z"/><path d="m45.705 2.28003h-2.28v2.295h2.28z"/><path d="m43.425 45.72h-38.865v2.28h38.865z"/><path d="m41.13 6.85498h-2.28v4.57502h2.28z"/><path d="m38.85 4.57495h-4.575v2.28h4.575z"/><path d="m36.57 20.5649h-2.295v11.43h2.295z"/><path d="m38.85 11.4301h-4.575v2.28h4.575z"/><path d="m34.275 31.995h-2.28v2.295h2.28z"/><path d="m34.275 6.85498h-2.28v4.57502h2.28z"/><path d="m31.995 34.29h-2.28v2.28h2.28z"/><path d="m18.285 22.86h-2.295v6.855h2.295v2.28h2.28v2.295h6.855v-2.295h2.295v-2.28h2.28v-6.855h-2.28v-2.295h-2.295v-2.28h-6.855v2.28h-2.28zm4.56 0h4.575v4.575h-2.28v-2.295h-2.295z"/><path d="m29.715 13.71h-11.43v2.295h11.43z"/><path d="m29.715 36.5699h-11.43v2.28h11.43z"/><path d="m18.285 34.29h-2.295v2.28h2.295z"/><path d="m15.99 31.995h-2.28v2.295h2.28z"/><path d="m13.71 20.5649h-2.295v11.43h2.295z"/><path d="m4.56 43.425h-2.28v2.295h2.28z"/><path d="m2.28 18.285h2.28v2.28h6.855v-2.28h2.295v2.28h2.28v-2.28h2.295v-2.28h-2.295v-13.725h27.435v-2.28h-38.865v2.28h-2.28v2.295h2.28v11.43h-2.28v-11.43h-2.28v38.85h2.28zm9.135-16.005h2.295v13.725h-2.295zm-4.56 0h2.28v13.725h-2.28z"/></g></svg>