<svg xmlns="http://www.w3.org/2000/svg" viewBox="0 -0.5 32 32" shape-rendering="crispEdges">
<metadata>Made with Pixels to Svg https://codepen.io/shshaw/pen/XbxvNj</metadata>
<path stroke="#000000" d="M10 1h17M2 2h1M6 2h4M27 2h3M2 3h2M5 3h1M29 3h2M1 4h5M28 4h1M30 4h1M1 5h5M12 5h1M17 5h1M20 5h3M28 5h3M1 6h1M5 6h1M7 6h5M13 6h1M16 6h1M18 6h2M23 6h3M28 6h1M1 7h1M5 7h1M13 7h1M17 7h1M27 7h1M2 8h1M6 8h1M26 8h1M2 9h1M6 9h1M19 9h2M23 9h1M26 9h1M2 10h1M6 10h1M8 10h4M14 10h1M21 10h1M23 10h1M25 10h1M2 11h1M6 11h1M12 11h1M14 11h1M22 11h1M25 11h1M2 12h1M6 12h1M13 12h1M25 12h1M2 13h1M6 13h1M25 13h1M3 14h1M7 14h1M25 14h1M3 15h1M7 15h1M21 15h2M24 15h1M3 16h1M7 16h6M16 16h2M20 16h1M24 16h1M3 17h1M7 17h1M13 17h1M15 17h1M18 17h2M24 17h1M3 18h1M7 18h1M14 18h1M24 18h1M3 19h1M7 19h1M21 19h1M24 19h1M2 20h1M4 20h1M8 20h1M16 20h2M21 20h1M24 20h1M2 21h1M4 21h1M8 21h2M13 21h3M18 21h1M20 21h1M24 21h1M2 22h1M4 22h1M8 22h1M19 22h1M24 22h1M2 23h1M4 23h1M8 23h1M24 23h1M1 24h1M3 24h2M8 24h1M12 24h2M25 24h1M1 25h2M4 25h1M8 25h1M10 25h2M14 25h1M17 25h1M19 25h4M25 25h1M1 26h1M5 26h1M9 26h1M14 26h1M16 26h1M26 26h1M1 27h1M5 27h1M9 27h1M15 27h1M23 27h1M26 27h1M1 28h1M5 28h1M9 28h1M27 28h1M2 29h4M9 29h21M6 30h3" />
</svg>